<?xml version="1.0" encoding="UTF-8"?>
<svg width="28px" height="28px" viewBox="0 0 28 28" version="1.1" xmlns="http://www.w3.org/2000/svg" xmlns:xlink="http://www.w3.org/1999/xlink">
    <title>warning-circle备份 3</title>
    <defs>
        <path d="M14,0 C21.7319865,0 28,6.2680135 28,14 C28,21.7319865 21.7319865,28 14,28 C6.2680135,28 0,21.7319865 0,14 C0,6.2680135 6.2680135,0 14,0 Z M14,1.75 C7.23451182,1.75 1.75,7.23451182 1.75,14 C1.75,20.7654882 7.23451182,26.25 14,26.25 C20.7654882,26.25 26.25,20.7654882 26.25,14 C26.25,7.23451182 20.7654882,1.75 14,1.75 Z M14.0875,19.5125 C14.7640488,19.5125 15.3125,20.0609512 15.3125,20.7375 C15.3125,21.4140488 14.7640488,21.9625 14.0875,21.9625 C13.4109512,21.9625 12.8625,21.4140488 12.8625,20.7375 C12.8625,20.0609512 13.4109512,19.5125 14.0875,19.5125 Z M14.9974408,6.0375 C15.1753582,6.0375 15.3165138,6.17507324 15.3122653,6.36515791 L15.0531149,17.9598421 C15.0490703,18.1408026 14.8954006,18.2875 14.7293072,18.2875 L13.4456952,18.2875 C13.2709058,18.2875 13.1261361,18.1499268 13.1218875,17.9598421 L12.8627371,6.36515791 C12.8586925,6.18419744 12.9878985,6.0375 13.1775615,6.0375 L14.9974408,6.0375 Z" id="path-1"></path>
    </defs>
    <g id="页面-1" stroke="none" stroke-width="1" fill="none" fill-rule="evenodd">
        <g id="点击“获取更多客户”后" transform="translate(-30.000000, -336.000000)">
            <g id="warning-circle备份-3" transform="translate(30.000000, 336.000000)">
                <mask id="mask-2" fill="white">
                    <use xlink:href="#path-1"></use>
                </mask>
                <use id="warning-circle" fill="#999999" xlink:href="#path-1"></use>
            </g>
        </g>
    </g>
</svg>